<?xml version="1.0" encoding="UTF-8"?>
<svg id="Layer_1" data-name="Layer 1" xmlns="http://www.w3.org/2000/svg" viewBox="0 0 1440 720">
  <defs>
    <style>
      .cls-1 {
        fill: #006cff;
      }
    </style>
  </defs>
  <g>
    <path class="cls-1" d="M428.52,526.95H163.87l-5.56-6.86c-35.25-43.48-54.66-98.34-54.66-154.48,0-135.43,110.18-245.61,245.61-245.61s245.61,110.18,245.61,245.61c0,56.12-19.4,110.97-54.63,154.44l-1.19,1.34-22.45,23.92c-18.28,17.09-38.99,31.23-61.55,42.01l-26.52,12.67v-73.05ZM349.25,157.07c-114.99,0-208.55,93.55-208.55,208.55,0,44.1,14.36,87.93,40.43,123.41l.63.86h239.01c24.71,0,44.81,20.1,44.81,44.81v4.07l3.33-2.34c7.65-5.38,15.03-11.35,21.91-17.75l.05-.05,20.96-22.4.05-.06c29.61-36.79,45.91-83.15,45.91-130.54,0-114.99-93.55-208.55-208.55-208.55Z"/>
    <path class="cls-1" d="M354.12,360.92c-12.88,0-23.35-10.48-23.35-23.35v-194.35h36.97v217.7h-13.61Z"/>
    <rect class="cls-1" x="132.38" y="329.01" width="164.99" height="31.91"/>
    <path class="cls-1" d="M244.25,500.29c-10.24-20.79-18.25-44.32-23.8-69.97-5.86-27.05-8.83-55.77-8.83-85.35,0-44.97,6.99-88.48,20.22-125.82,12.72-35.9,30.83-65.23,52.4-84.86h62.9v9.66c-24.06,1.12-48.3,21.36-66.81,55.91-20.41,38.11-31.65,89.64-31.65,145.1,0,60.62,13.66,116.93,37.58,155.33h-42.02Z"/>
    <path class="cls-1" d="M355.62,360.92c-13.7,0-24.85-11.15-24.85-24.85v-7.05h137.37v31.91h-112.52Z"/>
  </g>
  <g>
    <g>
      <path d="M788.04,130v23.9h-46.22v65.3h40.1v23.9h-40.1v91.24h-27.4v-180.69c0-13.06,10.59-23.65,23.65-23.65h49.97Z"/>
      <path d="M844.29,326.91c-10.69-6.51-19.05-15.49-25.07-26.96-6.03-11.46-9.04-24.58-9.04-39.35s3.01-27.88,9.04-39.35c6.02-11.46,14.38-20.45,25.07-26.96,10.68-6.51,22.83-9.76,36.44-9.76s26.04,3.26,36.73,9.76c10.68,6.51,18.99,15.5,24.92,26.96,5.92,11.47,8.89,24.59,8.89,39.35v6.41h-114.27c.97,14.38,5.44,25.8,13.41,34.25,7.97,8.45,18.26,12.68,30.9,12.68,10.1,0,18.75-2.43,25.94-7.29,7.19-4.86,12.24-11.76,15.16-20.7h26.53c-3.89,15.35-11.9,27.65-24.05,36.87-12.15,9.23-26.77,13.85-43.87,13.85-13.8,0-26.04-3.25-36.73-9.77ZM923.87,248.06c-1.36-12.63-5.93-22.59-13.7-29.88-7.77-7.29-17.59-10.93-29.44-10.93s-21.24,3.6-28.71,10.79c-7.48,7.19-12.29,17.2-14.43,30.02h86.28Z"/>
      <path d="M1009.83,326.91c-10.69-6.51-19.05-15.49-25.07-26.96-6.03-11.46-9.04-24.58-9.04-39.35s3.01-27.88,9.04-39.35c6.02-11.46,14.38-20.45,25.07-26.96,10.68-6.51,22.83-9.76,36.44-9.76s26.04,3.26,36.73,9.76c10.68,6.51,18.99,15.5,24.92,26.96,5.92,11.47,8.89,24.59,8.89,39.35v6.41h-114.27c.97,14.38,5.44,25.8,13.41,34.25,7.97,8.45,18.26,12.68,30.9,12.68,10.1,0,18.75-2.43,25.94-7.29,7.19-4.86,12.24-11.76,15.16-20.7h26.53c-3.89,15.35-11.9,27.65-24.05,36.87-12.15,9.23-26.77,13.85-43.87,13.85-13.8,0-26.04-3.25-36.73-9.77ZM1089.41,248.06c-1.36-12.63-5.93-22.59-13.7-29.88-7.77-7.29-17.59-10.93-29.44-10.93s-21.24,3.6-28.71,10.79c-7.48,7.19-12.29,17.2-14.43,30.02h86.28Z"/>
      <path d="M1299.69,196.46c10.59,7.97,17.15,18.56,19.68,31.77h-26.82c-1.17-6.6-4.62-11.81-10.35-15.6-5.73-3.79-12.97-5.68-21.72-5.68s-15.3,1.65-20.26,4.95c-4.96,3.31-7.43,7.77-7.43,13.41,0,4.47,1.46,8.07,4.37,10.79,2.92,2.72,6.51,4.81,10.79,6.27,4.27,1.46,10.68,3.26,19.24,5.39,12.05,3.31,21.76,6.51,29.15,9.62,7.38,3.11,13.56,7.58,18.51,13.41,4.96,5.83,7.43,13.51,7.43,23.03,0,13.02-5.1,23.51-15.3,31.48-10.2,7.97-23.95,11.95-41.25,11.95s-32.7-4.52-44.45-13.56c-11.76-9.04-19-21.13-21.72-36.29h27.11c1.55,8.55,5.83,15.26,12.83,20.11,7,4.86,15.74,7.29,26.23,7.29,9.52,0,17-1.84,22.45-5.54,5.44-3.69,8.16-8.64,8.16-14.87,0-6.8-2.82-11.81-8.45-15.01-5.64-3.21-14.28-6.27-25.94-9.18-11.86-2.92-21.47-5.83-28.86-8.75-7.39-2.92-13.6-7.19-18.66-12.83-5.06-5.63-7.58-13.21-7.58-22.74,0-12.63,4.86-22.69,14.58-30.17,9.71-7.48,22.74-11.22,39.06-11.22s28.61,3.99,39.21,11.95Z"/>
      <path d="M741.82,383.04v180.44h46.22v23.9h-49.97c-13.06,0-23.65-10.59-23.65-23.65v-180.69h27.4Z"/>
      <path d="M942.24,552.98c-6.03,11.47-14.38,20.45-25.07,26.96-10.69,6.51-22.84,9.77-36.44,9.77s-25.75-3.25-36.44-9.77c-10.69-6.51-19.05-15.49-25.07-26.96-6.03-11.46-9.04-24.58-9.04-39.35s3.01-27.93,9.04-39.5c6.02-11.56,14.38-20.55,25.07-26.96,10.68-6.41,22.83-9.62,36.44-9.62s25.75,3.21,36.44,9.62c10.68,6.41,19.04,15.4,25.07,26.96,6.02,11.56,9.04,24.73,9.04,39.5s-3.01,27.89-9.04,39.35ZM848.67,552.98c7.96,9.72,18.66,14.58,32.06,14.58s24.14-4.86,32.21-14.58c8.06-9.71,12.1-22.83,12.1-39.35s-4.03-29.3-12.1-38.92c-8.07-9.62-18.8-14.43-32.21-14.43s-24.1,4.81-32.06,14.43c-7.97,9.62-11.95,22.59-11.95,38.92s3.98,29.64,11.95,39.35Z"/>
      <path d="M982.46,474.13c6.02-11.56,14.38-20.55,25.07-26.96,10.68-6.41,22.83-9.62,36.44-9.62,16.91,0,31.43,4.91,43.58,14.72,12.14,9.82,20.26,22.98,24.34,39.5h-26.82c-2.92-9.91-7.97-17.64-15.16-23.17-7.19-5.54-15.84-8.31-25.94-8.31-13.41,0-24.1,4.81-32.06,14.43-7.97,9.62-11.95,22.59-11.95,38.92s3.98,29.29,11.95,38.91c7.96,9.62,18.66,14.43,32.06,14.43,10.1,0,18.75-2.77,25.94-8.31,7.19-5.54,12.24-13.26,15.16-23.17h26.82c-4.08,16.52-12.2,29.69-24.34,39.5-12.15,9.82-26.67,14.72-43.58,14.72-13.6,0-25.75-3.25-36.44-9.77-10.69-6.51-19.05-15.49-25.07-26.96-6.03-11.46-9.04-24.58-9.04-39.35s3.01-27.93,9.04-39.5Z"/>
      <path d="M1225.57,566.97c-11.47,15.35-26.34,23.03-44.6,23.03-15.35,0-27.79-4.23-37.31-12.68-9.52-8.45-14.28-19.28-14.28-32.5s5.25-23.22,15.74-30.61c10.49-7.38,25.55-12.24,45.18-14.58l34.4-3.79v-8.75c0-8.16-2.72-14.77-8.16-19.82-5.44-5.05-12.54-7.58-21.28-7.58s-15.89,1.95-21.43,5.83c-5.54,3.89-8.7,9.23-9.47,16.03h-25.65c1.55-13.41,7.38-24.09,17.49-32.06,10.1-7.96,23.32-11.95,39.64-11.95s30.07,4.95,40.08,14.87c10.01,9.91,15.01,23.13,15.01,39.64v53.34c0,16.91.58,30.9,1.75,41.98h-23.03c-1.95-6.8-3.31-13.6-4.08-20.4ZM1164.21,561.29c5.54,4.37,12.68,6.56,21.43,6.56,11.85,0,21.33-3.59,28.42-10.78,7.09-7.19,10.64-16.62,10.64-28.28v-14.57l-34.1,4.08c-10.88,1.36-19.38,4.23-25.51,8.6-6.12,4.37-9.18,10.16-9.18,17.34s2.77,12.68,8.31,17.05Z"/>
    </g>
    <path d="M1169.27,308.11v-178.11h-26.23v180.58c0,13.12,10.64,23.76,23.76,23.76h14.63v-26.23h-12.16Z"/>
    <path d="M1310.97,561.14v-178.11h-26.23v180.58c0,13.12,10.64,23.76,23.76,23.76h14.63v-26.23h-12.16Z"/>
  </g>
</svg>


